<mxfile host="app.diagrams.net" agent="Mozilla/5.0 (X11; Linux x86_64) AppleWebKit/537.36 (KHTML, like Gecko) Chrome/127.0.0.0 Safari/537.36" version="24.7.4">
  <diagram name="Page-1" id="dkjkcO98tUW8ZSabG4Bo">
    <mxGraphModel grid="1" page="1" gridSize="10" guides="1" tooltips="1" connect="1" arrows="1" fold="1" pageScale="1" pageWidth="850" pageHeight="1100" math="0" shadow="0">
      <root>
        <mxCell id="0" />
        <mxCell id="1" parent="0" />
        <mxCell id="ZmpNuwWmvoQAqBBD5_ST-3" value="&lt;font style=&quot;font-size: 14px;&quot;&gt;Bank&lt;/font&gt;" style="swimlane;whiteSpace=wrap;html=1;strokeWidth=3;" vertex="1" parent="1">
          <mxGeometry x="50" y="180" width="170" height="180" as="geometry" />
        </mxCell>
        <mxCell id="ZmpNuwWmvoQAqBBD5_ST-4" value="&lt;span style=&quot;font-size: 14px;&quot;&gt;&lt;font style=&quot;font-size: 14px;&quot;&gt;&lt;b&gt;- name&lt;/b&gt;&lt;/font&gt;&lt;/span&gt;&lt;div style=&quot;font-size: 14px;&quot;&gt;&lt;font style=&quot;font-size: 14px;&quot;&gt;&lt;b&gt;- location&lt;/b&gt;&lt;/font&gt;&lt;/div&gt;&lt;div style=&quot;font-size: 14px;&quot;&gt;&lt;font style=&quot;font-size: 14px;&quot;&gt;&lt;b&gt;- code&lt;/b&gt;&lt;/font&gt;&lt;/div&gt;" style="text;html=1;align=left;verticalAlign=middle;resizable=0;points=[];autosize=1;strokeColor=none;fillColor=none;" vertex="1" parent="ZmpNuwWmvoQAqBBD5_ST-3">
          <mxGeometry x="10" y="30" width="90" height="60" as="geometry" />
        </mxCell>
        <mxCell id="ZmpNuwWmvoQAqBBD5_ST-6" value="&lt;span style=&quot;font-size: 14px;&quot;&gt;&lt;font style=&quot;font-size: 14px;&quot;&gt;&lt;b&gt;+ add branch()&lt;/b&gt;&lt;/font&gt;&lt;/span&gt;&lt;div style=&quot;font-size: 14px;&quot;&gt;&lt;font style=&quot;font-size: 14px;&quot;&gt;&lt;b&gt;+ remove branch()&lt;/b&gt;&lt;/font&gt;&lt;/div&gt;&lt;div style=&quot;font-size: 14px;&quot;&gt;&lt;font style=&quot;font-size: 14px;&quot;&gt;&lt;b&gt;+ getAll branch()&lt;/b&gt;&lt;/font&gt;&lt;/div&gt;" style="text;strokeColor=none;align=left;fillColor=none;html=1;verticalAlign=middle;whiteSpace=wrap;rounded=0;" vertex="1" parent="ZmpNuwWmvoQAqBBD5_ST-3">
          <mxGeometry x="10" y="110" width="130" height="60" as="geometry" />
        </mxCell>
        <mxCell id="ZmpNuwWmvoQAqBBD5_ST-7" value="" style="endArrow=none;html=1;rounded=0;entryX=1;entryY=0.5;entryDx=0;entryDy=0;exitX=0;exitY=0.5;exitDx=0;exitDy=0;strokeWidth=3;" edge="1" parent="ZmpNuwWmvoQAqBBD5_ST-3">
          <mxGeometry width="50" height="50" relative="1" as="geometry">
            <mxPoint y="99.99999999999994" as="sourcePoint" />
            <mxPoint x="170" y="99.99999999999994" as="targetPoint" />
          </mxGeometry>
        </mxCell>
        <mxCell id="ZmpNuwWmvoQAqBBD5_ST-8" value="&lt;font style=&quot;font-size: 14px;&quot;&gt;Branch&lt;/font&gt;" style="swimlane;whiteSpace=wrap;html=1;strokeWidth=3;" vertex="1" parent="1">
          <mxGeometry x="340" y="180" width="170" height="180" as="geometry" />
        </mxCell>
        <mxCell id="ZmpNuwWmvoQAqBBD5_ST-9" value="&lt;span style=&quot;font-size: 14px;&quot;&gt;&lt;font style=&quot;font-size: 14px;&quot;&gt;&lt;b&gt;- city&lt;/b&gt;&lt;/font&gt;&lt;/span&gt;&lt;div&gt;&lt;span style=&quot;font-size: 14px;&quot;&gt;&lt;font style=&quot;font-size: 14px;&quot;&gt;&lt;b&gt;- branch_code&lt;/b&gt;&lt;/font&gt;&lt;/span&gt;&lt;/div&gt;" style="text;html=1;align=left;verticalAlign=middle;resizable=0;points=[];autosize=1;strokeColor=none;fillColor=none;" vertex="1" parent="ZmpNuwWmvoQAqBBD5_ST-8">
          <mxGeometry x="10" y="35" width="120" height="50" as="geometry" />
        </mxCell>
        <mxCell id="ZmpNuwWmvoQAqBBD5_ST-10" value="&lt;span style=&quot;font-size: 14px;&quot;&gt;&lt;font style=&quot;font-size: 14px;&quot;&gt;&lt;b&gt;+ add Account()&lt;/b&gt;&lt;/font&gt;&lt;/span&gt;&lt;div&gt;&lt;span style=&quot;font-size: 14px;&quot;&gt;&lt;font style=&quot;font-size: 14px;&quot;&gt;&lt;b&gt;+ remove Account()&lt;/b&gt;&lt;/font&gt;&lt;/span&gt;&lt;/div&gt;" style="text;strokeColor=none;align=left;fillColor=none;html=1;verticalAlign=middle;whiteSpace=wrap;rounded=0;" vertex="1" parent="ZmpNuwWmvoQAqBBD5_ST-8">
          <mxGeometry x="10" y="110" width="140" height="60" as="geometry" />
        </mxCell>
        <mxCell id="ZmpNuwWmvoQAqBBD5_ST-11" value="" style="endArrow=none;html=1;rounded=0;entryX=1;entryY=0.5;entryDx=0;entryDy=0;exitX=0;exitY=0.5;exitDx=0;exitDy=0;strokeWidth=3;" edge="1" parent="ZmpNuwWmvoQAqBBD5_ST-8">
          <mxGeometry width="50" height="50" relative="1" as="geometry">
            <mxPoint y="99.99999999999994" as="sourcePoint" />
            <mxPoint x="170" y="99.99999999999994" as="targetPoint" />
          </mxGeometry>
        </mxCell>
        <mxCell id="ZmpNuwWmvoQAqBBD5_ST-12" value="&lt;font style=&quot;font-size: 14px;&quot;&gt;Account&lt;/font&gt;" style="swimlane;whiteSpace=wrap;html=1;strokeWidth=3;startSize=23;" vertex="1" parent="1">
          <mxGeometry x="620" y="180" width="170" height="180" as="geometry" />
        </mxCell>
        <mxCell id="ZmpNuwWmvoQAqBBD5_ST-13" value="&lt;span style=&quot;font-size: 14px;&quot;&gt;&lt;font style=&quot;font-size: 14px;&quot;&gt;&lt;b&gt;- acc_no&lt;/b&gt;&lt;/font&gt;&lt;/span&gt;&lt;div&gt;&lt;span style=&quot;font-size: 14px;&quot;&gt;&lt;font style=&quot;font-size: 14px;&quot;&gt;&lt;b&gt;- balance&lt;/b&gt;&lt;/font&gt;&lt;/span&gt;&lt;/div&gt;" style="text;html=1;align=left;verticalAlign=middle;resizable=0;points=[];autosize=1;strokeColor=none;fillColor=none;" vertex="1" parent="ZmpNuwWmvoQAqBBD5_ST-12">
          <mxGeometry x="10" y="35" width="80" height="50" as="geometry" />
        </mxCell>
        <mxCell id="ZmpNuwWmvoQAqBBD5_ST-14" value="&lt;span style=&quot;font-size: 14px;&quot;&gt;&lt;font style=&quot;font-size: 14px;&quot;&gt;&lt;b&gt;+ deposit()&lt;/b&gt;&lt;/font&gt;&lt;/span&gt;&lt;div&gt;&lt;span style=&quot;font-size: 14px;&quot;&gt;&lt;font style=&quot;font-size: 14px;&quot;&gt;&lt;b&gt;+ withdraw()&lt;/b&gt;&lt;/font&gt;&lt;/span&gt;&lt;/div&gt;&lt;div&gt;&lt;span style=&quot;font-size: 14px;&quot;&gt;&lt;font style=&quot;font-size: 14px;&quot;&gt;&lt;b&gt;+ add Loan()&lt;/b&gt;&lt;/font&gt;&lt;/span&gt;&lt;/div&gt;&lt;div&gt;&lt;span style=&quot;font-size: 14px;&quot;&gt;&lt;font style=&quot;font-size: 14px;&quot;&gt;&lt;b&gt;+ remove Loan()&lt;/b&gt;&lt;/font&gt;&lt;/span&gt;&lt;/div&gt;" style="text;strokeColor=none;align=left;fillColor=none;html=1;verticalAlign=middle;whiteSpace=wrap;rounded=0;" vertex="1" parent="ZmpNuwWmvoQAqBBD5_ST-12">
          <mxGeometry x="10" y="110" width="130" height="60" as="geometry" />
        </mxCell>
        <mxCell id="ZmpNuwWmvoQAqBBD5_ST-15" value="" style="endArrow=none;html=1;rounded=0;entryX=1;entryY=0.5;entryDx=0;entryDy=0;exitX=0;exitY=0.5;exitDx=0;exitDy=0;strokeWidth=3;" edge="1" parent="ZmpNuwWmvoQAqBBD5_ST-12">
          <mxGeometry width="50" height="50" relative="1" as="geometry">
            <mxPoint y="99.99999999999994" as="sourcePoint" />
            <mxPoint x="170" y="99.99999999999994" as="targetPoint" />
          </mxGeometry>
        </mxCell>
        <mxCell id="ZmpNuwWmvoQAqBBD5_ST-16" value="&lt;font style=&quot;font-size: 14px;&quot;&gt;Loan&lt;/font&gt;" style="swimlane;whiteSpace=wrap;html=1;strokeWidth=3;" vertex="1" parent="1">
          <mxGeometry x="200" y="470" width="170" height="180" as="geometry" />
        </mxCell>
        <mxCell id="ZmpNuwWmvoQAqBBD5_ST-17" value="&lt;span style=&quot;font-size: 14px;&quot;&gt;&lt;font style=&quot;font-size: 14px;&quot;&gt;&lt;b&gt;- loan_no&lt;/b&gt;&lt;/font&gt;&lt;/span&gt;&lt;div&gt;&lt;span style=&quot;font-size: 14px;&quot;&gt;&lt;font style=&quot;font-size: 14px;&quot;&gt;&lt;b&gt;- amount&lt;/b&gt;&lt;/font&gt;&lt;/span&gt;&lt;/div&gt;&lt;div&gt;&lt;span style=&quot;font-size: 14px;&quot;&gt;&lt;font style=&quot;font-size: 14px;&quot;&gt;&lt;b&gt;- type&lt;/b&gt;&lt;/font&gt;&lt;/span&gt;&lt;/div&gt;" style="text;html=1;align=left;verticalAlign=middle;resizable=0;points=[];autosize=1;strokeColor=none;fillColor=none;" vertex="1" parent="ZmpNuwWmvoQAqBBD5_ST-16">
          <mxGeometry x="10" y="30" width="90" height="60" as="geometry" />
        </mxCell>
        <mxCell id="ZmpNuwWmvoQAqBBD5_ST-18" value="&lt;span style=&quot;font-size: 14px;&quot;&gt;&lt;font style=&quot;font-size: 14px;&quot;&gt;&lt;b&gt;+ add Customer()&lt;/b&gt;&lt;/font&gt;&lt;/span&gt;&lt;div&gt;&lt;span style=&quot;font-size: 14px;&quot;&gt;&lt;b&gt;+ remove Customer()&lt;/b&gt;&lt;/span&gt;&lt;/div&gt;" style="text;strokeColor=none;align=left;fillColor=none;html=1;verticalAlign=middle;whiteSpace=wrap;rounded=0;" vertex="1" parent="ZmpNuwWmvoQAqBBD5_ST-16">
          <mxGeometry x="10" y="110" width="150" height="60" as="geometry" />
        </mxCell>
        <mxCell id="ZmpNuwWmvoQAqBBD5_ST-19" value="" style="endArrow=none;html=1;rounded=0;entryX=1;entryY=0.5;entryDx=0;entryDy=0;exitX=0;exitY=0.5;exitDx=0;exitDy=0;strokeWidth=3;" edge="1" parent="ZmpNuwWmvoQAqBBD5_ST-16">
          <mxGeometry width="50" height="50" relative="1" as="geometry">
            <mxPoint y="99.99999999999994" as="sourcePoint" />
            <mxPoint x="170" y="99.99999999999994" as="targetPoint" />
          </mxGeometry>
        </mxCell>
        <mxCell id="ZmpNuwWmvoQAqBBD5_ST-20" value="&lt;font style=&quot;font-size: 14px;&quot;&gt;Saving Account&lt;/font&gt;" style="swimlane;whiteSpace=wrap;html=1;strokeWidth=3;" vertex="1" parent="1">
          <mxGeometry x="490" y="470" width="170" height="180" as="geometry" />
        </mxCell>
        <mxCell id="ZmpNuwWmvoQAqBBD5_ST-21" value="&lt;span style=&quot;font-size: 14px;&quot;&gt;&lt;font style=&quot;font-size: 14px;&quot;&gt;&lt;b&gt;- min_balance&lt;/b&gt;&lt;/font&gt;&lt;/span&gt;&lt;div&gt;&lt;span style=&quot;font-size: 14px;&quot;&gt;&lt;font style=&quot;font-size: 14px;&quot;&gt;&lt;b&gt;- opening_date&lt;/b&gt;&lt;/font&gt;&lt;/span&gt;&lt;/div&gt;" style="text;html=1;align=left;verticalAlign=middle;resizable=0;points=[];autosize=1;strokeColor=none;fillColor=none;" vertex="1" parent="ZmpNuwWmvoQAqBBD5_ST-20">
          <mxGeometry x="10" y="35" width="120" height="50" as="geometry" />
        </mxCell>
        <mxCell id="ZmpNuwWmvoQAqBBD5_ST-22" value="&lt;span style=&quot;font-size: 14px;&quot;&gt;&lt;font style=&quot;font-size: 14px;&quot;&gt;&lt;b&gt;+ add Customer&lt;/b&gt;&lt;/font&gt;&lt;/span&gt;&lt;b style=&quot;font-size: 14px; background-color: initial;&quot;&gt;()&lt;/b&gt;&lt;div&gt;&lt;b style=&quot;font-size: 14px; background-color: initial;&quot;&gt;+ remove Customer()&lt;/b&gt;&lt;/div&gt;" style="text;strokeColor=none;align=left;fillColor=none;html=1;verticalAlign=middle;whiteSpace=wrap;rounded=0;" vertex="1" parent="ZmpNuwWmvoQAqBBD5_ST-20">
          <mxGeometry x="10" y="110" width="150" height="60" as="geometry" />
        </mxCell>
        <mxCell id="ZmpNuwWmvoQAqBBD5_ST-23" value="" style="endArrow=none;html=1;rounded=0;entryX=1;entryY=0.5;entryDx=0;entryDy=0;exitX=0;exitY=0.5;exitDx=0;exitDy=0;strokeWidth=3;" edge="1" parent="ZmpNuwWmvoQAqBBD5_ST-20">
          <mxGeometry width="50" height="50" relative="1" as="geometry">
            <mxPoint y="99.99999999999994" as="sourcePoint" />
            <mxPoint x="170" y="99.99999999999994" as="targetPoint" />
          </mxGeometry>
        </mxCell>
        <mxCell id="ZmpNuwWmvoQAqBBD5_ST-24" value="&lt;font style=&quot;font-size: 14px;&quot;&gt;Customer&lt;/font&gt;" style="swimlane;whiteSpace=wrap;html=1;strokeWidth=3;startSize=23;" vertex="1" parent="1">
          <mxGeometry x="340" y="740" width="170" height="100" as="geometry" />
        </mxCell>
        <mxCell id="ZmpNuwWmvoQAqBBD5_ST-25" value="&lt;span style=&quot;font-size: 14px;&quot;&gt;&lt;font style=&quot;font-size: 14px;&quot;&gt;&lt;b&gt;- customer_id&lt;/b&gt;&lt;/font&gt;&lt;/span&gt;&lt;div&gt;&lt;span style=&quot;font-size: 14px;&quot;&gt;&lt;font style=&quot;font-size: 14px;&quot;&gt;&lt;b&gt;- name&lt;/b&gt;&lt;/font&gt;&lt;/span&gt;&lt;/div&gt;&lt;div&gt;&lt;span style=&quot;font-size: 14px;&quot;&gt;&lt;font style=&quot;font-size: 14px;&quot;&gt;&lt;b&gt;- address&lt;/b&gt;&lt;/font&gt;&lt;/span&gt;&lt;/div&gt;" style="text;html=1;align=left;verticalAlign=middle;resizable=0;points=[];autosize=1;strokeColor=none;fillColor=none;" vertex="1" parent="ZmpNuwWmvoQAqBBD5_ST-24">
          <mxGeometry x="10" y="30" width="120" height="60" as="geometry" />
        </mxCell>
        <mxCell id="ZmpNuwWmvoQAqBBD5_ST-28" value="" style="rhombus;whiteSpace=wrap;html=1;fillColor=#000000;strokeWidth=3;" vertex="1" parent="1">
          <mxGeometry x="220" y="240" width="60" height="60" as="geometry" />
        </mxCell>
        <mxCell id="ZmpNuwWmvoQAqBBD5_ST-31" value="" style="endArrow=none;html=1;rounded=0;entryX=0;entryY=0.5;entryDx=0;entryDy=0;exitX=1;exitY=0.5;exitDx=0;exitDy=0;strokeWidth=3;" edge="1" parent="1" source="ZmpNuwWmvoQAqBBD5_ST-28" target="ZmpNuwWmvoQAqBBD5_ST-8">
          <mxGeometry width="50" height="50" relative="1" as="geometry">
            <mxPoint x="190" y="310" as="sourcePoint" />
            <mxPoint x="240" y="260" as="targetPoint" />
          </mxGeometry>
        </mxCell>
        <mxCell id="ZmpNuwWmvoQAqBBD5_ST-32" value="&lt;b&gt;1&lt;/b&gt;" style="text;strokeColor=none;align=center;fillColor=none;html=1;verticalAlign=middle;whiteSpace=wrap;rounded=0;" vertex="1" parent="1">
          <mxGeometry x="220" y="300" width="60" height="30" as="geometry" />
        </mxCell>
        <mxCell id="ZmpNuwWmvoQAqBBD5_ST-33" value="&lt;b&gt;&lt;font style=&quot;font-size: 14px;&quot;&gt;*&lt;/font&gt;&lt;/b&gt;" style="text;strokeColor=none;align=center;fillColor=none;html=1;verticalAlign=middle;whiteSpace=wrap;rounded=0;" vertex="1" parent="1">
          <mxGeometry x="290" y="270" width="60" height="30" as="geometry" />
        </mxCell>
        <mxCell id="ZmpNuwWmvoQAqBBD5_ST-34" value="" style="rhombus;whiteSpace=wrap;html=1;fillColor=#FFFFFF;strokeWidth=3;" vertex="1" parent="1">
          <mxGeometry x="510" y="240" width="60" height="60" as="geometry" />
        </mxCell>
        <mxCell id="ZmpNuwWmvoQAqBBD5_ST-35" value="" style="endArrow=none;html=1;rounded=0;exitX=1;exitY=0.5;exitDx=0;exitDy=0;entryX=0;entryY=0.5;entryDx=0;entryDy=0;strokeWidth=3;" edge="1" parent="1" source="ZmpNuwWmvoQAqBBD5_ST-34" target="ZmpNuwWmvoQAqBBD5_ST-12">
          <mxGeometry width="50" height="50" relative="1" as="geometry">
            <mxPoint x="480" y="310" as="sourcePoint" />
            <mxPoint x="580" y="300" as="targetPoint" />
          </mxGeometry>
        </mxCell>
        <mxCell id="ZmpNuwWmvoQAqBBD5_ST-36" value="&lt;b&gt;&lt;font style=&quot;font-size: 14px;&quot;&gt;0...*&lt;/font&gt;&lt;/b&gt;" style="text;strokeColor=none;align=center;fillColor=none;html=1;verticalAlign=middle;whiteSpace=wrap;rounded=0;" vertex="1" parent="1">
          <mxGeometry x="530" y="290" width="80" height="30" as="geometry" />
        </mxCell>
        <mxCell id="ZmpNuwWmvoQAqBBD5_ST-37" value="" style="triangle;whiteSpace=wrap;html=1;rotation=-90;strokeWidth=3;" vertex="1" parent="1">
          <mxGeometry x="681.25" y="355" width="47.5" height="57.5" as="geometry" />
        </mxCell>
        <mxCell id="ZmpNuwWmvoQAqBBD5_ST-44" value="" style="endArrow=none;html=1;rounded=0;entryX=0;entryY=0.5;entryDx=0;entryDy=0;strokeWidth=3;" edge="1" parent="1" target="ZmpNuwWmvoQAqBBD5_ST-37">
          <mxGeometry width="50" height="50" relative="1" as="geometry">
            <mxPoint x="280" y="420" as="sourcePoint" />
            <mxPoint x="470" y="410" as="targetPoint" />
            <Array as="points">
              <mxPoint x="705" y="420" />
            </Array>
          </mxGeometry>
        </mxCell>
        <mxCell id="ZmpNuwWmvoQAqBBD5_ST-45" value="" style="endArrow=none;html=1;rounded=0;strokeWidth=3;" edge="1" parent="1">
          <mxGeometry width="50" height="50" relative="1" as="geometry">
            <mxPoint x="280" y="420" as="sourcePoint" />
            <mxPoint x="280" y="470" as="targetPoint" />
          </mxGeometry>
        </mxCell>
        <mxCell id="ZmpNuwWmvoQAqBBD5_ST-46" value="" style="endArrow=none;html=1;rounded=0;strokeWidth=3;" edge="1" parent="1">
          <mxGeometry width="50" height="50" relative="1" as="geometry">
            <mxPoint x="574.72" y="420" as="sourcePoint" />
            <mxPoint x="574.72" y="470" as="targetPoint" />
          </mxGeometry>
        </mxCell>
        <mxCell id="ZmpNuwWmvoQAqBBD5_ST-47" value="" style="endArrow=none;html=1;rounded=0;entryX=0.5;entryY=1;entryDx=0;entryDy=0;strokeWidth=3;" edge="1" parent="1" target="ZmpNuwWmvoQAqBBD5_ST-16">
          <mxGeometry width="50" height="50" relative="1" as="geometry">
            <mxPoint x="340" y="801.2121212121212" as="sourcePoint" />
            <mxPoint x="300" y="740" as="targetPoint" />
            <Array as="points">
              <mxPoint x="285" y="800" />
            </Array>
          </mxGeometry>
        </mxCell>
        <mxCell id="ZmpNuwWmvoQAqBBD5_ST-48" value="" style="endArrow=none;html=1;rounded=0;entryX=0.5;entryY=1;entryDx=0;entryDy=0;strokeWidth=3;" edge="1" parent="1" target="ZmpNuwWmvoQAqBBD5_ST-20">
          <mxGeometry width="50" height="50" relative="1" as="geometry">
            <mxPoint x="510" y="800" as="sourcePoint" />
            <mxPoint x="555" y="680" as="targetPoint" />
            <Array as="points">
              <mxPoint x="575" y="800" />
            </Array>
          </mxGeometry>
        </mxCell>
        <mxCell id="ZmpNuwWmvoQAqBBD5_ST-49" value="&lt;b&gt;0...*&lt;/b&gt;" style="text;strokeColor=none;align=center;fillColor=none;html=1;verticalAlign=middle;whiteSpace=wrap;rounded=0;" vertex="1" parent="1">
          <mxGeometry x="280" y="650" width="60" height="30" as="geometry" />
        </mxCell>
        <mxCell id="ZmpNuwWmvoQAqBBD5_ST-50" value="&lt;b&gt;0...1&lt;/b&gt;" style="text;strokeColor=none;align=center;fillColor=none;html=1;verticalAlign=middle;whiteSpace=wrap;rounded=0;" vertex="1" parent="1">
          <mxGeometry x="570" y="650" width="60" height="30" as="geometry" />
        </mxCell>
        <mxCell id="ZmpNuwWmvoQAqBBD5_ST-51" value="&lt;b&gt;1&lt;/b&gt;" style="text;strokeColor=none;align=center;fillColor=none;html=1;verticalAlign=middle;whiteSpace=wrap;rounded=0;" vertex="1" parent="1">
          <mxGeometry x="290" y="775" width="60" height="30" as="geometry" />
        </mxCell>
        <mxCell id="ZmpNuwWmvoQAqBBD5_ST-52" value="&lt;b&gt;1&lt;/b&gt;" style="text;strokeColor=none;align=center;fillColor=none;html=1;verticalAlign=middle;whiteSpace=wrap;rounded=0;" vertex="1" parent="1">
          <mxGeometry x="500" y="775" width="60" height="30" as="geometry" />
        </mxCell>
        <mxCell id="ZmpNuwWmvoQAqBBD5_ST-54" value="&lt;b&gt;fig. Class Diagram for Bank Management System&lt;/b&gt;" style="text;strokeColor=none;align=center;fillColor=none;html=1;verticalAlign=middle;whiteSpace=wrap;rounded=0;" vertex="1" parent="1">
          <mxGeometry x="250" y="920" width="350" height="30" as="geometry" />
        </mxCell>
      </root>
    </mxGraphModel>
  </diagram>
</mxfile>
